<svg width="8" height="8" viewBox="0 0 8 8" fill="none" xmlns="http://www.w3.org/2000/svg">
<path d="M4.14399 0.719971C4.78399 0.719971 5.35465 0.863971 5.85599 1.15197C6.36799 1.43997 6.76265 1.83997 7.03999 2.35197C7.32799 2.8533 7.47199 3.42397 7.47199 4.06397C7.47199 4.70397 7.32799 5.27997 7.03999 5.79197C6.76265 6.2933 6.36799 6.68797 5.85599 6.97597C5.35465 7.26397 4.78399 7.40797 4.14399 7.40797C3.50399 7.40797 2.92799 7.26397 2.41599 6.97597C1.91465 6.68797 1.51999 6.2933 1.23199 5.79197C0.943988 5.27997 0.799988 4.70397 0.799988 4.06397C0.799988 3.42397 0.943988 2.8533 1.23199 2.35197C1.51999 1.83997 1.91465 1.43997 2.41599 1.15197C2.92799 0.863971 3.50399 0.719971 4.14399 0.719971ZM4.14399 6.67197C4.91199 6.67197 5.52532 6.43197 5.98399 5.95197C6.45332 5.47197 6.68799 4.84264 6.68799 4.06397C6.68799 3.2853 6.45332 2.65597 5.98399 2.17597C5.52532 1.69597 4.91199 1.45597 4.14399 1.45597C3.36532 1.45597 2.74665 1.69597 2.28799 2.17597C1.82932 2.65597 1.59999 3.2853 1.59999 4.06397C1.59999 4.84264 1.82932 5.47197 2.28799 5.95197C2.74665 6.43197 3.36532 6.67197 4.14399 6.67197ZM5.61599 3.42397C5.61599 3.65864 5.55732 3.86664 5.43999 4.04797C5.32265 4.21864 5.16265 4.34664 4.95999 4.43197L5.80799 5.74397H4.59199L3.88799 4.54397H3.77599V5.74397H2.76799V2.30397H4.38399C4.75732 2.30397 5.05599 2.41064 5.27999 2.62397C5.50399 2.82664 5.61599 3.0933 5.61599 3.42397ZM3.77599 3.72797H4.31999C4.40532 3.72797 4.47465 3.70664 4.52799 3.66397C4.59199 3.61064 4.62399 3.5413 4.62399 3.45597C4.62399 3.37064 4.59199 3.30664 4.52799 3.26397C4.47465 3.2213 4.40532 3.19997 4.31999 3.19997H3.77599V3.72797Z" fill="#121212"/>
</svg>
